<svg xmlns="http://www.w3.org/2000/svg" viewBox="0 0 190 220" fill="none"><path d="M98 207C92 165 93 117 112 42" stroke="#d5a25b" stroke-width="2" opacity=".45"/><path d="M109 56c-18-6-27-20-31-38 18 6 29 18 31 38Z" stroke="#d5a25b" opacity=".35"/><path d="M104 92c-19-5-34-17-45-35 21 2 36 12 45 35Z" stroke="#d5a25b" opacity=".35"/><path d="M96 129c-22-2-39-12-51-29 23-1 40 8 51 29Z" stroke="#d5a25b" opacity=".35"/><path d="M94 166c-23 2-43-5-59-21 24-5 43 0 59 21Z" stroke="#d5a25b" opacity=".35"/><path d="M118 75c18-10 35-27 45-49-23 5-39 22-45 49Z" stroke="#d5a25b" opacity=".35"/><path d="M111 113c25-7 44-22 58-45-27 3-47 17-58 45Z" stroke="#d5a25b" opacity=".35"/><path d="M102 150c28-2 50-13 68-33-29-2-52 8-68 33Z" stroke="#d5a25b" opacity=".35"/></svg>