<svg xmlns="http://www.w3.org/2000/svg" viewBox="0 0 900 560"><defs><linearGradient id="bg" x1="0" x2="1"><stop stop-color="#fff9ef"/><stop offset="1" stop-color="#ead8bd"/></linearGradient><linearGradient id="gold" x1="0" x2="1"><stop stop-color="#e2b15f"/><stop offset="1" stop-color="#a76a25"/></linearGradient></defs><rect width="900" height="560" fill="url(#bg)"/><ellipse cx="575" cy="420" rx="260" ry="38" fill="#d9b789" opacity=".35"/><rect x="235" y="165" width="555" height="95" rx="12" fill="#f4e6cd" stroke="#dcc5a7"/><rect x="275" y="260" width="550" height="95" rx="12" fill="#0d2547" stroke="#0a1b34"/><rect x="215" y="355" width="570" height="95" rx="12" fill="#efe0c4" stroke="#d8be98"/><text x="345" y="223" font-family="Georgia,serif" font-size="27" fill="#2b1f18">PLANNING for WHAT MATTERS MOST</text><text x="410" y="322" font-family="Georgia,serif" font-size="38" fill="#d9b46b">LEGACY &amp; LIFE</text><text x="310" y="414" font-family="Georgia,serif" font-size="28" fill="#2b1f18">CLARITY TODAY. CONFIDENCE TOMORROW.</text><circle cx="565" cy="105" r="58" fill="none" stroke="#2b1f18" stroke-width="10"/><circle cx="700" cy="105" r="58" fill="none" stroke="#2b1f18" stroke-width="10"/><path d="M617 107c25-13 48-13 72 0" stroke="#2b1f18" stroke-width="9" stroke-linecap="round"/><path d="M510 115c-55 2-89 19-112 46" stroke="#2b1f18" stroke-width="9" stroke-linecap="round" opacity=".7"/><path d="M755 115c49 2 82 16 105 44" stroke="#2b1f18" stroke-width="9" stroke-linecap="round" opacity=".7"/><path d="M110 70c35 95 25 218-8 318" stroke="#caa46b" stroke-width="4" opacity=".45"/><path d="M112 125c-35-18-52-43-52-75 38 13 58 39 52 75Z" fill="none" stroke="#caa46b" stroke-width="3" opacity=".45"/><path d="M120 165c43-7 74-31 88-72-44 5-75 30-88 72Z" fill="none" stroke="#caa46b" stroke-width="3" opacity=".45"/></svg>